<?xml version="1.0" encoding="UTF-8"?>
<!-- Generated by jsxcad -->
<!DOCTYPE svg PUBLIC "-//W3C//DTD SVG 1.1 Tiny//EN" "http://www.w3.org/Graphics/SVG/1.1/DTD/svg11-tiny.dtd">
<svg baseProfile="tiny" height="7.076142131979699mm" width="10.000000000000007mm" viewBox="-5.0000000000000036 -3.5380710659898496 10.000000000000007 7.076142131979699" version="1.1" stroke="black" stroke-width=".1" fill="none" xmlns="http://www.w3.org/2000/svg">
<path fill="#000000" stroke="#000000" d="M4.990133642141358 -0.22215732036513464 L5 -2.1664437030601653e-16 L4.990133642141359 0.22215732036512406 L4.960573506572391 0.4434378872808012 L4.911436253643447 0.6629684074428813 L4.842915805643159 0.8798824941822423 L4.7552825814757735 1.0933240866971377 L4.6488824294412625 1.3024508285341048 L4.5241352623301045 1.5064373919840284 L4.3815334002193245 1.7044787352735729 L4.221639627510084 1.8957932796972528 L4.045084971874744 2.0796259941515345 L3.852566213878955 2.2552513748976404 L3.6448431371070673 2.421976308793373 L3.422735529643453 2.5791428086940225 L3.187119948743459 2.726130610227025 L2.9389262614623757 2.862359619692067 L2.6791339748949934 2.987292203425906 L2.4087683705085867 3.1004353095968122 L2.1288964578253737 3.201342414054898 L1.8406227634233998 3.2896152825589366 L1.545084971874747 3.3649055424249825 L1.2434494358242838 3.4269160573941906 L0.9369065729286326 3.475402100293887 L0.6266661678215325 3.5101723188639125 L0.3139525976465778 3.531089490936574 L1.048990684667789e-14 3.5380710659898473 L-0.31395259764655464 3.5310894909365746 L-0.6266661678215095 3.5101723188639147 L-0.9369065729286119 3.475402100293889 L-1.2434494358242634 3.4269160573941937 L-1.545084971874727 3.364905542424987 L-1.8406227634233805 3.2896152825589424 L-2.1288964578253546 3.201342414054904 L-2.408768370508568 3.10043530959682 L-2.6791339748949756 2.9872922034259144 L-2.938926261462359 2.8623596196920764 L-3.1871199487434425 2.726130610227034 L-3.422735529643438 2.5791428086940327 L-3.6448431371070527 2.421976308793384 L-3.8525662138789407 2.255251374897653 L-4.045084971874732 2.0796259941515465 L-4.221639627510071 1.8957932796972667 L-4.381533400219315 1.7044787352735862 L-4.524135262330095 1.506437391984043 L-4.6488824294412545 1.3024508285341188 L-4.755282581475766 1.093324086697153 L-4.8429158056431545 0.8798824941822566 L-4.911436253643442 0.6629684074428974 L-4.960573506572389 0.44343788728081596 L-4.990133642141357 0.2221573203651381 L-5 3.711403589915984e-15 L-4.990133642141358 -0.2221573203651307 L-4.9605735065723895 -0.44343788728080935 L-4.911436253643444 -0.6629684074428908 L-4.842915805643156 -0.8798824941822502 L-4.755282581475769 -1.0933240866971468 L-4.648882429441258 -1.3024508285341116 L-4.524135262330099 -1.5064373919840364 L-4.38153340021932 -1.7044787352735793 L-4.221639627510077 -1.8957932796972603 L-4.045084971874738 -2.0796259941515407 L-3.8525662138789474 -2.255251374897647 L-3.644843137107059 -2.421976308793379 L-3.422735529643445 -2.5791428086940282 L-3.18711994874345 -2.7261306102270297 L-2.9389262614623672 -2.862359619692072 L-2.679133974894985 -2.98729220342591 L-2.4087683705085787 -3.1004353095968153 L-2.1288964578253657 -3.2013424140549 L-1.8406227634233923 -3.2896152825589393 L-1.54508497187474 -3.364905542424984 L-1.2434494358242767 -3.426916057394191 L-0.9369065729286259 -3.4754021002938877 L-0.626666167821524 -3.510172318863913 L-0.3139525976465696 -3.5310894909365746 L-2.7248972640692438e-15 -3.5380710659898473 L0.3139525976465641 -3.5310894909365746 L0.6266661678215185 -3.5101723188639133 L0.9369065729286206 -3.4754021002938886 L1.2434494358242714 -3.4269160573941924 L1.5450849718747348 -3.364905542424985 L1.8406227634233876 -3.2896152825589406 L2.128896457825361 -3.2013424140549023 L2.4087683705085743 -3.100435309596817 L2.6791339748949805 -2.987292203425912 L2.9389262614623632 -2.8623596196920738 L3.1871199487434465 -2.726130610227032 L3.422735529643441 -2.579142808694031 L3.6448431371070553 -2.421976308793382 L3.8525662138789443 -2.2552513748976493 L4.0450849718747355 -2.079625994151543 L4.221639627510074 -1.8957932796972636 L4.3815334002193165 -1.7044787352735828 L4.5241352623300966 -1.50643739198404 L4.648882429441256 -1.3024508285341154 L4.755282581475767 -1.0933240866971499 L4.842915805643155 -0.8798824941822533 L4.911436253643443 -0.6629684074428946 L4.960573506572389 -0.44343788728081324 z"/>
</svg>